#!OML:ASF I:\Random Stuff\random\construction\7_22_03\Session 2\subj1.ASF
:FULLY-SPECIFIED
:DEGREES
661
root 4.85834 17.4841 -0.861825 -21.1657 83.7802 -21.2076
lowerback 8.90296 2.5139 -3.1036
upperback -0.777852 3.09157 1.20793
thorax -6.04702 1.64579 2.5723
lowerneck -24.0913 2.03691 3.69564
upperneck 23.7689 3.46478 -6.24622
head 11.9983 1.10826 -2.36065
rclavicle -2.3556e-014 -2.18663e-015
rhumerus -33.6708 3.2915 -70.9259
rradius 42.6038
rwrist -14.184
rhand -19.4315 17.1118
rfingers 7.12502
rthumb 6.88858 -12.7561
lclavicle -2.3556e-014 -2.18663e-015
lhumerus -38.0949 -5.20711 79.5421
lradius 59.4998
lwrist 68.4242
lhand -19.9157 69.547
lfingers 7.12502
lthumb 6.4212 -99.4296
rfemur -40.0578 -10.1617 26.8526
rtibia 20.294
rfoot -12.7613 -1.1004
rtoes -53.1142
lfemur -8.32058 -4.71451 -25.1726
ltibia 25.682
lfoot -15.9305 4.82745
ltoes -6.72806
662
root 4.84808 17.4918 -0.832112 -20.2044 83.8642 -20.2527
lowerback 9.04297 2.45155 -3.12458
upperback -0.767975 3.00165 1.19945
thorax -6.11015 1.60266 2.58343
lowerneck -24.1268 2.08502 3.71375
upperneck 23.6787 3.50587 -6.21314
head 11.9722 1.13144 -2.34266
rclavicle 3.28057e-014 -3.18055e-015
rhumerus -33.9626 3.38544 -70.9842
rradius 42.5831
rwrist -14.2201
rhand -19.3886 17.1303
rfingers 7.12502
rthumb 6.93007 -12.7362
lclavicle 3.28057e-014 -3.18055e-015
lhumerus -37.9308 -5.30926 79.6172
lradius 59.7272
lwrist 68.3093
lhand -19.9604 69.5777
lfingers 7.12502
lthumb 6.37802 -99.4616
rfemur -40.3727 -9.98752 27.1244
rtibia 20.929
rfoot -14.3609 -3.33194
rtoes -53.2898
lfemur -8.19889 -4.71431 -25.1968
ltibia 25.353
lfoot -15.7617 4.83621
ltoes -6.73588
663
root 4.83717 17.4985 -0.802195 -19.3111 83.9707 -19.3894
lowerback 9.03765 2.35062 -3.26328
upperback -0.676909 2.85764 1.2737
thorax -6.0117 1.53546 2.76283
lowerneck -24.0624 2.18263 3.79512
upperneck 23.3792 3.63732 -6.37097
head 11.8577 1.17825 -2.38819
rclavicle -9.5075e-015 1.02374e-014
rhumerus -34.0332 3.54201 -70.9743
rradius 42.4774
rwrist -14.1957
rhand -19.4403 17.2532
rfingers 7.12502
rthumb 6.88016 -12.615
lclavicle -9.5075e-015 1.02374e-014
lhumerus -37.7641 -5.28694 79.764
lradius 60.0732
lwrist 68.2748
lhand -20.2176 69.4626
lfingers 7.12502
lthumb 6.12978 -99.3539
rfemur -40.6842 -9.60671 27.1673
rtibia 21.7515
rfoot -15.6457 -5.83259
rtoes -52.9951
lfemur -8.09916 -4.78696 -25.2179
ltibia 25.0051
lfoot -15.619 4.91577
ltoes -6.97349
664
root 4.8266 17.51 -0.772166 -18.9554 84.0971 -19.0833
lowerback 9.14118 2.27427 -3.17376
upperback -0.684655 2.76132 1.25358
thorax -6.06558 1.48557 2.70197
lowerneck -23.9402 2.20639 3.92395
upperneck 23.1337 3.64575 -6.50673
head 11.7462 1.17867 -2.45527
rclavicle 7.17178e-015 -1.19271e-015
rhumerus -34.3099 3.45615 -70.9942
rradius 42.3775
rwrist -14.1274
rhand -19.3597 17.2843
rfingers 7.12502
rthumb 6.95798 -12.5814
lclavicle 7.17178e-015 -1.19271e-015
lhumerus -37.6804 -5.49042 79.8561
lradius 60.339
lwrist 68.2604
lhand -18.547 69.5551
lfingers 7.12502
lthumb 7.74239 -99.3934
rfemur -40.9461 -9.1608 27.084
rtibia 22.7283
rfoot -16.1924 -10.2255
rtoes -53.1859
lfemur -8.01008 -4.98903 -25.185
ltibia 24.6641
lfoot -15.4866 5.12113
ltoes -7.0706
665
root 4.81762 17.5251 -0.741871 -18.9263 84.2391 -19.1057
lowerback 9.13797 2.17334 -3.15875
upperback -0.633493 2.63392 1.32901
thorax -6.00322 1.42251 2.79274
lowerneck -23.9541 2.26708 3.97877
upperneck 22.9814 3.73814 -6.64506
head 11.7011 1.20691 -2.49812
rclavicle 2.75938e-014 3.97569e-016
rhumerus -34.4666 3.52815 -70.9254
rradius 42.2468
rwrist -14.0214
rhand -19.2629 17.2091
rfingers 7.12502
rthumb 7.05143 -12.6534
lclavicle 2.75938e-014 3.97569e-016
lhumerus -37.5771 -5.49007 80.0438
lradius 60.5459
lwrist 68.1446
lhand -18.0614 69.8022
lfingers 7.12502
lthumb 8.21107 -99.6227
rfemur -41.1829 -8.8475 26.9965
rtibia 23.8678
rfoot -16.7555 -12.4805
rtoes -51.2995
lfemur -7.91398 -5.18362 -25.122
ltibia 24.3078
lfoot -15.2622 5.29301
ltoes -7.08084
